<?xml version="1.0" encoding="UTF-8"?>
<!DOCTYPE svg PUBLIC "-//W3C//DTD SVG 1.1//EN" "http://www.w3.org/Graphics/SVG/1.1/DTD/svg11.dtd">
<!-- Creator: CorelDRAW X7 -->
<svg xmlns="http://www.w3.org/2000/svg" xml:space="preserve" width="96mm" height="102mm" version="1.1" style="shape-rendering:geometricPrecision; text-rendering:geometricPrecision; image-rendering:optimizeQuality; fill-rule:evenodd; clip-rule:evenodd"
viewBox="0 0 9600 10200"
 xmlns:xlink="http://www.w3.org/1999/xlink">
 <defs>
  <style type="text/css">
   <![CDATA[
    .fil3 {fill:#FEFEFE}
    .fil0 {fill:#EEEEEF}
    .fil1 {fill:#C9CACA}
    .fil2 {fill:#332C2B}
   ]]>
  </style>
 </defs>
 <g id="Layer_x0020_1">
  <metadata id="CorelCorpID_0Corel-Layer"/>
  <rect class="fil0" transform="matrix(0.948649 -0.308994 0.307773 0.952411 -138.616 1788.19)" width="6237" height="7663" rx="535" ry="535"/>
  <rect class="fil1" transform="matrix(0.90183 -0.293744 0.292584 0.905406 65.6003 1920.73)" width="6237" height="7663" rx="535" ry="535"/>
  <rect class="fil2" transform="matrix(0.948649 -0.308994 0.307773 0.952411 1528.44 793.993)" width="2445" height="857" rx="138" ry="138"/>
  <circle class="fil2" transform="matrix(0.948649 -0.308994 0.307773 0.952411 2643.53 278.55)" r="175"/>
  <circle class="fil3" transform="matrix(0.585042 -0.19056 0.189807 0.587362 2643.53 278.55)" r="175"/>
  <rect class="fil0" x="3379" y="2527" width="6221" height="7673" rx="533" ry="535"/>
  <rect class="fil1" x="3533" y="2716" width="5914" height="7294" rx="507" ry="509"/>
  <rect class="fil2" x="5271" y="2098" width="2438" height="858" rx="138" ry="139"/>
  <ellipse class="fil2" cx="6490" cy="1953" rx="174" ry="175"/>
  <ellipse class="fil3" cx="6490" cy="1953" rx="107" ry="108"/>
 </g>
</svg>
